<svg width="25.915283" height="23.906677" viewBox="0 0 25.9153 23.9067" fill="none" xmlns="http://www.w3.org/2000/svg" xmlns:xlink="http://www.w3.org/1999/xlink">
	<desc>
			Created with Pixso.
	</desc>
	<defs/>
	<path id="Vector" d="M21.2561 21.9122C21.301 21.9009 21.3223 21.8799 21.3401 21.859C21.3477 21.8499 21.3555 21.8408 21.3633 21.8318C21.3999 21.7902 21.4031 21.7019 21.4023 21.6572C21.3892 21.5514 21.2986 21.4788 21.2214 21.4788C21.2178 21.4788 21.2139 21.4789 21.2117 21.479C21.1338 21.4843 21.0461 21.5878 21.0527 21.709C21.062 21.8256 21.1479 21.9122 21.2195 21.9122L21.2561 21.9122ZM7.6377 21.9059C7.73657 21.9059 7.81714 21.8118 7.81714 21.6962C7.81714 21.581 7.73657 21.4872 7.6377 21.4872C7.53882 21.4872 7.4585 21.581 7.4585 21.6962C7.4585 21.8118 7.53882 21.9059 7.6377 21.9059ZM21.3794 23.9067C21.3318 23.9067 21.2681 23.9067 21.2195 23.9067C20.0852 23.9067 19.1428 22.9974 19.0627 21.8442C18.9829 20.6425 19.8777 19.5709 21.0759 19.4892C21.1248 19.4859 21.1733 19.4843 21.2214 19.4843C22.3572 19.4843 23.3159 20.3827 23.3933 21.5355C23.4248 22.1368 23.2488 22.705 22.8655 23.1438C22.4824 23.5988 21.9546 23.8582 21.3794 23.9067ZM7.6377 23.9003C6.43677 23.9003 5.46387 22.9141 5.46387 21.6962C5.46387 20.4791 6.43677 19.4928 7.6377 19.4928C8.83862 19.4928 9.81152 20.4791 9.81152 21.6962C9.81152 22.9141 8.83862 23.9003 7.6377 23.9003ZM20.5806 17.0533L8.54858 17.0533C8.11694 17.0533 7.73389 16.7608 7.62158 16.339L3.70654 1.94928L0.958496 1.94928C0.431641 1.94928 0 1.51141 0 0.974731C0 0.438843 0.431641 0 0.958496 0L4.42651 0C4.85718 0 5.24048 0.292542 5.35254 0.715271L9.26758 15.1041L19.9414 15.1041L23.4885 6.82184L11.6648 6.82184C11.137 6.82184 10.7053 6.383 10.7053 5.84723C10.7053 5.3114 11.137 4.87256 11.6648 4.87256L24.9585 4.87256C25.2781 4.87256 25.5823 5.03491 25.7573 5.3114C25.9333 5.58685 25.9656 5.92792 25.8372 6.23663L21.4592 16.4681C21.2993 16.8254 20.9639 17.0533 20.5806 17.0533Z" fill="#FFFFFF" fill-opacity="1.000000" fill-rule="nonzero"/>
</svg>
