<svg width="15.892334" height="12.994904" viewBox="0 0 15.8923 12.9949" fill="none" xmlns="http://www.w3.org/2000/svg" xmlns:xlink="http://www.w3.org/1999/xlink">
	<desc>
			Created with Pixso.
	</desc>
	<defs/>
	<path id="Vector" d="M14.2587 3.23856C14.2689 3.38068 14.2689 3.52286 14.2689 3.66498C14.2689 7.99997 10.9916 12.9949 5.00165 12.9949C3.15631 12.9949 1.44202 12.4568 0 11.5229C0.262207 11.5533 0.514282 11.5634 0.78656 11.5634C2.3092 11.5634 3.71088 11.0457 4.8302 10.1624C3.39832 10.132 2.1983 9.18781 1.78485 7.88831C1.98657 7.91876 2.18823 7.93906 2.40002 7.93906C2.69244 7.93906 2.98486 7.89844 3.25714 7.82739C1.76471 7.52283 0.645325 6.20303 0.645325 4.60913L0.645325 4.56854C1.07892 4.81219 1.58319 4.96448 2.11761 4.98474C1.2403 4.3959 0.665527 3.39084 0.665527 2.25378C0.665527 1.64465 0.826843 1.08627 1.10919 0.598969C2.71259 2.58881 5.12268 3.88828 7.82513 4.03043C7.77472 3.78677 7.74445 3.53299 7.74445 3.27917C7.74445 1.47208 9.19653 0 11.0016 0C11.9394 0 12.7864 0.395935 13.3814 1.03552C14.1175 0.893402 14.8234 0.619293 15.4486 0.243652C15.2066 1.0051 14.6923 1.64468 14.0167 2.05075C14.6722 1.97971 15.3074 1.79694 15.8923 1.54315C15.4487 2.19287 14.894 2.77155 14.2587 3.23856Z" fill="#000000" fill-opacity="1.000000" fill-rule="nonzero"/>
</svg>
